Coordinates
version=1
nRows=24
nColumns=24
inDegrees=yes

Units are S.I. units (second, meters, Newtons, ...)
Angles are in degrees.

endheader
time	pelvis_tilt	pelvis_list	pelvis_rotation	pelvis_tx	pelvis_ty	pelvis_tz	hip_flexion_r	hip_adduction_r	hip_rotation_r	knee_angle_r	ankle_angle_r	subtalar_angle_r	mtp_angle_r	hip_flexion_l	hip_adduction_l	hip_rotation_l	knee_angle_l	ankle_angle_l	subtalar_angle_l	mtp_angle_l	lumbar_extension	lumbar_bending	lumbar_rotation
      2.83500000	     -6.51287454	     -2.33589217	     -4.11716535	     -0.90093507	     -0.03786782	     -0.14303690	     -8.28055153	      7.26822018	      7.54812239	    -24.98890140	      2.37407933	     17.25476782	     21.09996909	     36.87063807	     -0.68034254	    -16.59584415	    -14.71104876	      8.96004998	     18.58644815	    -14.42157325	      6.15622040	      2.30236053	      4.77729365
      2.84000000	     -6.57979256	     -2.00408975	     -4.20785964	     -0.89305515	     -0.03846351	     -0.14335031	     -8.11355524	      6.69319906	      6.98222198	    -25.94541500	      1.41854803	     18.37195468	     21.97194033	     36.79684897	     -0.31282575	    -16.44472354	    -15.24275663	      8.12051645	     17.48610273	    -14.32454138	      6.42018446	      1.91264819	      4.73228553
      2.84500000	     -6.62828483	     -1.57932518	     -4.25100983	     -0.88503681	     -0.03891861	     -0.14372378	     -7.97203609	      6.00953104	      6.43981626	    -26.78532658	      0.07016999	     19.22128152	     23.65098222	     36.65263854	      0.20966640	    -16.15154539	    -15.61456861	      6.81444653	     16.01431026	    -13.51611846	      6.68906535	      1.40356242	      4.57808179
      2.85000000	     -6.68287183	     -1.14762937	     -4.40172921	     -0.87711378	     -0.03927635	     -0.14399664	     -7.73281015	      5.27778769	      5.94436698	    -27.69702741	     -1.45949811	     20.20764655	     25.63262508	     36.50632880	      0.66434087	    -15.96206929	    -15.92818778	      5.22198059	     14.56265213	    -11.79793685	      6.95069503	      0.92199751	      4.65432448
      2.85500000	     -6.83632813	     -0.68842319	     -4.40412080	     -0.86929799	     -0.03977462	     -0.14448061	     -7.28140090	      4.50531688	      5.21856211	    -28.85031340	     -2.73575734	     21.60975633	     26.55019612	     36.56118784	      1.23439043	    -15.55923443	    -16.43076719	      3.93049472	     13.13816921	    -11.70144630	      7.29933309	      0.39055077	      4.48930993
      2.86000000	     -6.90130137	     -0.12990495	     -4.46366157	     -0.86127051	     -0.03997621	     -0.14486916	     -6.94398970	      3.59777991	      4.61685492	    -29.78213435	     -4.69067476	     22.56526485	     28.90598490	     36.43560324	      1.89384722	    -15.15860240	    -16.75460703	      2.32727340	     11.51519247	    -10.74100293	      7.59357113	     -0.24834292	      4.41118662
      2.86500000	     -7.09693642	      0.39732530	     -4.47632106	     -0.85350548	     -0.04037021	     -0.14536470	     -6.32081213	      2.71377628	      3.95584900	    -31.04210731	     -6.30760016	     24.00109772	     29.86311205	     36.56179946	      2.54120284	    -14.61810993	    -17.30253981	      1.03931575	      9.97727646	    -10.93782833	      7.97799100	     -0.84397357	      4.27720783
      2.87000000	     -7.24448048	      0.97075851	     -4.49072780	     -0.84569762	     -0.04063036	     -0.14585269	     -5.71484888	      1.75804910	      3.32513134	    -32.25867621	     -8.27970848	     25.24153230	     31.28767136	     36.61801761	      3.25123101	    -14.01603977	    -17.83101342	     -0.20887291	      8.40172877	    -11.21513469	      8.32108706	     -1.48874821	      4.16532723
      2.87500000	     -7.40475490	      1.55428558	     -4.50599986	     -0.83789270	     -0.04086433	     -0.14631330	     -5.04708642	      0.78696074	      2.75523509	    -33.49411018	    -10.47125352	     26.34484615	     32.77759694	     36.70266159	      3.96279710	    -13.44041858	    -18.41666837	     -1.29386969	      6.96523641	    -11.61112133	      8.67701242	     -2.14674959	      4.06521747
      2.88000000	     -7.54393700	      2.16424957	     -4.47196218	     -0.82998775	     -0.04104201	     -0.14673937	     -4.39328515	     -0.20210748	      2.20533974	    -34.68294439	    -12.96628173	     27.14812247	     34.44514507	     36.75198332	      4.72262067	    -12.86590853	    -19.02139949	     -2.15003040	      5.71596094	    -12.19253509	      9.03148860	     -2.85976917	      3.88490785
      2.88500000	     -7.73913750	      2.74894414	     -4.52473114	     -0.82236826	     -0.04133113	     -0.14716655	     -3.52939843	     -1.17599130	      1.80744971	    -36.13442076	    -15.23477424	     28.17100294	     35.18580863	     36.90434657	      5.39946428	    -12.40339333	    -19.69641585	     -2.83655605	      4.54478355	    -12.79082768	      9.39465382	     -3.49352513	      3.85812184
      2.89000000	     -7.89340413	      3.35843434	     -4.47547566	     -0.81462296	     -0.04156067	     -0.14762815	     -2.72621137	     -2.15256161	      1.41207562	    -37.52843511	    -17.73324811	     28.85500152	     35.96078302	     36.96375202	      6.16557777	    -11.88168906	    -20.31949090	     -3.29375816	      3.54587748	    -13.57302471	      9.73295296	     -4.19679940	      3.69275105
      2.89500000	     -8.06832150	      3.94970472	     -4.52123628	     -0.80710865	     -0.04183512	     -0.14801634	     -1.77256270	     -3.09042989	      1.20632078	    -39.12695634	    -20.07943524	     29.45290365	     35.92483402	     37.04457486	      6.84686096	    -11.51608095	    -20.92276360	     -3.67567272	      2.59152545	    -14.00989145	     10.05834772	     -4.83621568	      3.69487756
      2.90000000	     -8.21009627	      4.54409809	     -4.45608252	     -0.79959882	     -0.04209595	     -0.14852024	     -0.85133584	     -4.01790778	      0.95007962	    -40.72924247	    -22.46052621	     29.77757755	     35.72141367	     37.05309854	      7.60117877	    -11.12411572	    -21.47050100	     -3.92626231	      1.74853067	    -14.43361519	     10.33586047	     -5.51283618	      3.52676085
      2.90500000	     -8.31515434	      5.13111957	     -4.39911033	     -0.79220303	     -0.04233510	     -0.14904085	      0.09188255	     -4.92642110	      0.73760820	    -42.40866431	    -24.80759713	     29.80510686	     35.19090235	     36.99001447	      8.34158529	    -10.82859932	    -21.96284026	     -4.04204984	      1.01354008	    -14.68860963	     10.55408648	     -6.16654475	      3.42496148
      2.91000000	     -8.37470203	      5.76215915	     -4.32323677	     -0.78480539	     -0.04251471	     -0.14952711	      1.01583151	     -5.86327976	      0.56007779	    -44.12160261	    -27.08425635	     29.53641815	     34.46378147	     36.82103796	      9.11883645	    -10.69274188	    -22.35536739	     -4.03578966	      0.47001206	    -14.77087885	     10.72691680	     -6.88870039	      3.25730591
      2.91500000	     -8.45282411	      6.35673118	     -4.20588881	     -0.77759716	     -0.04269758	     -0.15015868	      2.01414405	     -6.74990960	      0.38685819	    -45.89558517	    -29.29163493	     28.99111137	     33.47378609	     36.63492049	      9.90838658	    -10.46721948	    -22.66450338	     -4.04057380	     -0.14650494	    -14.82913718	     10.87789169	     -7.55744872	      3.08227718
      2.92000000	     -8.56962123	      6.87001376	     -4.00491349	     -0.77054712	     -0.04288998	     -0.15097176	      3.08545628	     -7.52765751	      0.20711725	    -47.74373420	    -31.26833801	     28.27425876	     31.79900241	     36.45228832	     10.69158476	    -10.07465451	    -22.91089069	     -4.06913611	     -0.83450374	    -14.77088536	     11.02634706	     -8.13270920	      2.81009254
      2.92500000	     -8.62568161	      7.47633612	     -3.79164846	     -0.76348907	     -0.04301878	     -0.15173386	      4.13100801	     -8.41819932	     -0.00869767	    -49.67827645	    -32.82675987	     27.38551855	     29.72991722	     36.14891616	     11.54241767	     -9.92337760	    -23.03832857	     -4.05891833	     -1.29434542	    -14.38321576	     11.11744525	     -8.83226088	      2.50859222
      2.93000000	     -8.61853593	      8.04798299	     -3.66360438	     -0.75654103	     -0.04295157	     -0.15246487	      5.14776905	     -9.24714785	     -0.09885399	    -51.48877411	    -34.57815172	     26.06849129	     28.36012689	     35.70991287	     12.33865286	     -9.78400757	    -23.04942406	     -3.95979444	     -1.75691935	    -14.17357849	     11.13312934	     -9.45999389	      2.30848969
      2.93500000	     -8.66253462	      8.58636256	     -3.36894393	     -0.74967793	     -0.04294936	     -0.15340626	      6.21374080	    -10.06666273	     -0.36882136	    -53.39561664	    -35.67218219	     24.77947466	     26.21616448	     35.30601816	     13.18998577	     -9.54900126	    -23.02999220	     -3.96316184	     -2.21198224	    -13.61577743	     11.16168825	    -10.08379190	      1.95328575
      2.94000000	     -8.63571787	      9.12904600	     -3.22177663	     -0.74289396	     -0.04272666	     -0.15416036	      7.25686691	    -10.83526334	     -0.41095452	    -55.16924621	    -36.81780737	     23.18112072	     24.95404119	     34.76166350	     13.97689815	     -9.39476220	    -22.89368430	     -3.85611109	     -2.63308705	    -13.35747816	     11.13040084	    -10.68270679	      1.72051308
      2.94500000	     -8.62931821	      9.63243489	     -2.99802868	     -0.73619071	     -0.04247908	     -0.15500500	      8.31674314	    -11.56517500	     -0.52984929	    -56.92628863	    -37.48161195	     21.54913650	     23.67252977	     34.21061579	     14.76458549	     -9.18715774	    -22.72444101	     -3.73971236	     -3.00324246	    -13.08694888	     11.09287167	    -11.25351467	      1.40043813
      2.95000000	     -8.60991283	     10.09026786	     -2.75597733	     -0.72967217	     -0.04213494	     -0.15583937	      9.38463100	    -12.22710751	     -0.63734465	    -58.64355187	    -37.73903109	     19.93698375	     22.57590855	     33.63750383	     15.50609247	     -8.98750055	    -22.54250984	     -3.64577908	     -3.30030233	    -12.83563624	     10.99822178	    -11.78085521	      1.08190862
